<svg width="75" height="25" viewBox="0 0 75 25" fill="none" xmlns="http://www.w3.org/2000/svg">
<g id="Group">
<g id="Group_2">
<path id="Vector" d="M61.4553 8.05322V24.4996H57.825V8.05322H61.4553Z" fill="#83EEC0"/>
<path id="Vector_2" d="M65.6499 18.879V24.4996H62.1189V18.4636C62.1189 14.9447 64.2328 12.0613 68.5346 12.0613C72.8364 12.0613 75 14.9203 75 18.4636V24.4996H71.469V18.879C71.469 17.0219 70.5488 15.4334 68.5351 15.4334C66.5448 15.4334 65.6499 17.0219 65.6499 18.879Z" fill="#83EEC0"/>
<g id="Group_3">
<path id="Vector_3" d="M64.1051 6.80191H55.1748C54.9296 6.80191 54.731 6.60624 54.731 6.36472V0.93719C54.731 0.695666 54.9296 0.5 55.1748 0.5H64.1051C64.3502 0.5 64.5488 0.695666 64.5488 0.93719V6.36472C64.5493 6.60624 64.3502 6.80191 64.1051 6.80191Z" fill="#5473E9"/>
<g id="Group_4">
<path id="Vector_4" d="M56.1327 3.67423C56.1327 2.93263 56.7492 2.31113 57.5569 2.31113C58.3804 2.31113 58.9864 2.89594 58.9864 3.67423V4.97488H58.2687V4.67177C58.0826 4.90151 57.7958 5.04258 57.4345 5.04258C56.669 5.04258 56.1327 4.42632 56.1327 3.67423ZM58.2319 3.67947C58.2319 3.31391 57.9447 3.0108 57.5569 3.0108C57.169 3.0108 56.8871 3.31391 56.8871 3.67947C56.8871 4.04503 57.169 4.34814 57.5569 4.34814C57.9447 4.34814 58.2319 4.04503 58.2319 3.67947Z" fill="white"/>
<path id="Vector_5" d="M60.1344 2.38944V5.11041C60.1344 5.76335 59.7093 6.21758 58.9172 6.21758L58.8747 5.51746C59.2146 5.51746 59.3795 5.3397 59.3795 5.08377V2.38856H60.1344V2.38944ZM59.2949 1.54345C59.2949 1.29275 59.5076 1.08398 59.7625 1.08398C60.0174 1.08398 60.2248 1.29275 60.2248 1.54345C60.2248 1.79939 60.0174 2.00291 59.7625 2.00291C59.5076 2.00291 59.2949 1.79939 59.2949 1.54345Z" fill="#83EEC0"/>
<path id="Vector_6" d="M60.294 3.67414C60.294 2.93253 60.9105 2.31104 61.7182 2.31104C62.5417 2.31104 63.1477 2.89585 63.1477 3.67414V4.97479H62.43V4.67168C62.2439 4.90142 61.9571 5.04249 61.5958 5.04249C60.8307 5.04249 60.294 4.42623 60.294 3.67414ZM62.3932 3.67938C62.3932 3.31382 62.106 3.01071 61.7182 3.01071C61.3303 3.01071 61.0484 3.31382 61.0484 3.67938C61.0484 4.04494 61.3303 4.34805 61.7182 4.34805C62.1064 4.34805 62.3932 4.04494 62.3932 3.67938Z" fill="white"/>
</g>
</g>
</g>
<g id="Group_5">
<path id="Vector_7" d="M0 13.8393C0 7.89995 4.74199 3.17865 10.8164 3.17865C14.4427 3.17865 17.9139 5.06717 19.4635 8.26507L15.7752 10.306C14.7526 8.53935 13.1409 7.41253 10.6303 7.41253C7.15909 7.41253 4.64891 10.1235 4.64891 13.8393C4.64891 17.5552 7.1285 20.2662 10.6303 20.2662C13.1409 20.2662 14.8142 19.1393 15.7752 17.3727L19.4635 19.4136C17.9139 22.6115 14.4427 24.5 10.8164 24.5C4.74199 24.4996 0 19.7787 0 13.8393Z" fill="#5473E9"/>
<path id="Vector_8" d="M28.3345 17.1956C28.3345 12.8866 31.3526 9.86423 35.7378 9.86423C37.1616 9.86423 38.5281 10.3678 39.5534 11.1793L39.5822 3.87592H43.6252V17.1956C43.6252 21.3932 40.3792 24.4994 35.9656 24.4994C31.6377 24.4994 28.3345 21.1975 28.3345 17.1956ZM39.5818 17.1956C39.5818 15.2367 38.0441 13.6138 35.9656 13.6138C33.8872 13.6138 32.3779 15.2367 32.3779 17.1956C32.3779 19.1544 33.8872 20.7494 35.9656 20.7494C38.0441 20.7494 39.5818 19.1548 39.5818 17.1956Z" fill="#5473E9"/>
<path id="Vector_9" d="M41.1757 17.0846C41.1757 13.083 44.1371 9.78119 48.4935 9.78119C52.9638 9.78119 55.5551 13.0271 55.5551 16.8046V17.9799H45.0768C45.3614 19.8269 46.8135 21.0577 48.8352 21.0577C50.3725 21.0577 51.6544 20.3305 52.3091 19.043L55.4128 20.5821C54.1885 23.0724 51.8534 24.4998 48.8636 24.4998C44.4789 24.4998 41.1757 21.5058 41.1757 17.0846ZM51.5405 15.7691C51.3694 14.3418 50.1739 13.2508 48.4651 13.2508C46.6996 13.2508 45.5321 14.3701 45.2475 15.7691H51.5405Z" fill="#5473E9"/>
<path id="Vector_10" d="M15.6059 17.3531C15.6059 13.4524 18.8532 10.2336 23.0447 10.2336C27.2915 10.2336 30.5114 13.4795 30.5114 17.3531C30.5114 21.2812 27.264 24.4997 23.0447 24.4997C18.8257 24.4997 15.6059 21.2808 15.6059 17.3531ZM26.5699 17.3802C26.5699 15.4707 25.0708 13.8888 23.0447 13.8888C21.0185 13.8888 19.5473 15.4707 19.5473 17.3802C19.5473 19.2896 21.0185 20.8716 23.0447 20.8716C25.0708 20.8716 26.5699 19.2896 26.5699 17.3802Z" fill="#5473E9"/>
</g>
</g>
</svg>
